<svg width="32" height="32" viewBox="0 0 32 32" fill="none" xmlns="http://www.w3.org/2000/svg">
<rect width="32" height="32" fill="black"/>
<circle cx="16.0001" cy="16" r="9.74" stroke="white"/>
<circle cx="16" cy="16" r="6.3" stroke="white"/>
<path d="M2.88013 10.0688L2.98932 5.60399L3.05956 5.39359H3.20005L3.27029 5.60399L3.20005 9.33333L3.32585 9.50776H3.50488L3.62575 9.33333L3.65281 5.604L3.72305 5.3936H3.86354L3.93379 5.604V9.32107L4.0513 9.50776H4.21336L4.34997 9.32107V5.604L4.42021 5.3936H4.5607L4.63094 5.604V9.32107L4.77143 9.46133H4.91192L5.05241 9.32107L5.02117 5.604L5.09142 5.3936H5.2319L5.30215 5.604L5.33338 10.0224L5.19289 10.3731L5.05241 10.5835L4.91192 10.7237L4.70119 11.0043L4.5607 11.2848L4.49046 11.7056V12.2667V18.1342V22.1318L4.43582 25.6285V25.9792V26.1195L4.29533 26.2597L4.0846 26.4L3.87387 26.2597L3.73338 26.1195V25.9792V25.6285L3.72305 22.1318V18.1342V12.3131V11.752L3.58257 11.3312L3.44208 11.0507L3.23135 10.7702L3.09086 10.6299L2.95037 10.4195L2.88013 10.0688Z" fill="white"/>
<path d="M29.2554 18.0976V17.3794C29.2554 17.3794 29.3581 6.53808 29.3581 6.16188C29.3581 5.78568 29.0498 5.46023 28.8443 5.44368C28.6388 5.42714 27.9105 5.42871 27.8509 6.33287C27.4959 10.5247 26.9602 17.0716 26.9602 17.3794C26.9602 17.6872 27.5602 17.9663 27.6453 18.337L27.6453 18.85V19.7734L27.5083 26.0319C27.762 26.3749 27.9394 26.5037 28.399 26.4765C28.8665 26.4794 29.0319 26.3527 29.2554 26.0319V19.7734V18.85V18.0976Z" fill="white"/>
</svg>
