<svg width="248" height="26" viewBox="0 0 248 26" fill="none" xmlns="http://www.w3.org/2000/svg">
<path d="M5.89986 20L0.489347 1.09091H4.85653L7.98651 14.2294H8.14347L11.5966 1.09091H15.3359L18.7798 14.2571H18.946L22.076 1.09091H26.4432L21.0327 20H17.1364L13.5355 7.63707H13.3878L9.79617 20H5.89986ZM32.4423 11.8011V20H28.5091V1.09091H32.3315V8.32031H32.4977C32.8178 7.48319 33.3348 6.82765 34.0488 6.35369C34.7628 5.87358 35.6584 5.63352 36.7356 5.63352C37.7205 5.63352 38.5791 5.84896 39.3116 6.27983C40.0502 6.70454 40.6227 7.317 41.0289 8.11719C41.4413 8.91122 41.6445 9.86222 41.6383 10.9702V20H37.7051V11.6719C37.7112 10.7978 37.4896 10.1177 37.0403 9.63139C36.5971 9.14512 35.9754 8.90199 35.1752 8.90199C34.6397 8.90199 34.1658 9.01586 33.7534 9.24361C33.3471 9.47135 33.027 9.80374 32.7931 10.2408C32.5654 10.6716 32.4484 11.1918 32.4423 11.8011ZM48.7777 20.2678C47.8729 20.2678 47.0665 20.1108 46.3587 19.7969C45.6508 19.4768 45.0907 19.0059 44.6783 18.3842C44.272 17.7564 44.0689 16.9747 44.0689 16.0391C44.0689 15.2512 44.2135 14.5895 44.5028 14.054C44.7921 13.5185 45.1861 13.0876 45.6847 12.7614C46.1832 12.4351 46.7495 12.1889 47.3835 12.0227C48.0237 11.8565 48.6946 11.7396 49.3963 11.6719C50.2211 11.5857 50.8859 11.5057 51.3906 11.4318C51.8954 11.3518 52.2616 11.2348 52.4893 11.081C52.7171 10.9271 52.831 10.6993 52.831 10.3977V10.3423C52.831 9.75758 52.6463 9.30516 52.277 8.98508C51.9138 8.66501 51.3968 8.50497 50.7259 8.50497C50.018 8.50497 49.4548 8.66193 49.0362 8.97585C48.6177 9.28362 48.3407 9.6714 48.2053 10.1392L44.5675 9.84375C44.7521 8.98201 45.1153 8.23722 45.657 7.60938C46.1986 6.97538 46.8973 6.48911 47.7528 6.15057C48.6146 5.80587 49.6117 5.63352 50.7443 5.63352C51.5322 5.63352 52.2862 5.72585 53.0064 5.91051C53.7327 6.09517 54.3759 6.38139 54.9361 6.76918C55.5024 7.15696 55.9486 7.65554 56.2749 8.26491C56.6011 8.86813 56.7642 9.59138 56.7642 10.4347V20H53.0341V18.0334H52.9233C52.6955 18.4766 52.3909 18.8674 52.0092 19.206C51.6276 19.5384 51.169 19.8 50.6335 19.9908C50.098 20.1754 49.4794 20.2678 48.7777 20.2678ZM49.9041 17.5533C50.4827 17.5533 50.9936 17.4394 51.4368 17.2116C51.88 16.9777 52.2277 16.6638 52.4801 16.2699C52.7325 15.8759 52.8587 15.4297 52.8587 14.9311V13.4261C52.7356 13.5062 52.5663 13.58 52.3509 13.6477C52.1416 13.7093 51.9046 13.7678 51.6399 13.8232C51.3752 13.8724 51.1106 13.9186 50.8459 13.9616C50.5812 13.9986 50.3411 14.0324 50.1257 14.0632C49.6641 14.1309 49.2609 14.2386 48.9162 14.3864C48.5715 14.5341 48.3037 14.7341 48.1129 14.9865C47.9221 15.2327 47.8267 15.5405 47.8267 15.9098C47.8267 16.4453 48.0206 16.8546 48.4084 17.1378C48.8023 17.4148 49.3009 17.5533 49.9041 17.5533ZM67.359 5.81818V8.77273H58.8185V5.81818H67.359ZM60.7575 2.42045H64.6907V15.642C64.6907 16.0052 64.7461 16.2884 64.8569 16.4915C64.9677 16.6884 65.1216 16.8269 65.3185 16.907C65.5217 16.987 65.7556 17.027 66.0202 17.027C66.2049 17.027 66.3896 17.0116 66.5742 16.9808C66.7589 16.9439 66.9004 16.9162 66.9989 16.8977L67.6175 19.8246C67.4206 19.8861 67.1436 19.9569 66.7866 20.0369C66.4296 20.1231 65.9956 20.1754 65.4847 20.1939C64.5368 20.2308 63.7058 20.1046 62.9918 19.8153C62.284 19.526 61.7331 19.0767 61.3391 18.4673C60.9452 17.858 60.7513 17.0885 60.7575 16.1591V2.42045ZM73.8521 1.09091V3.08523C73.8521 3.65151 73.7413 4.23011 73.5197 4.82102C73.3043 5.40578 73.015 5.95975 72.6518 6.48295C72.2886 7 71.8916 7.4401 71.4608 7.80327L69.725 6.77841C70.0327 6.29214 70.3036 5.75355 70.5375 5.16264C70.7775 4.57173 70.8975 3.88542 70.8975 3.10369V1.09091H73.8521ZM86.4943 9.86222L82.8935 10.0838C82.8319 9.77604 82.6996 9.49905 82.4964 9.25284C82.2933 9.00047 82.0256 8.80043 81.6932 8.6527C81.367 8.49882 80.9761 8.42188 80.5206 8.42188C79.9112 8.42188 79.3973 8.55114 78.9787 8.80966C78.5601 9.06203 78.3509 9.40057 78.3509 9.82528C78.3509 10.1638 78.4863 10.45 78.7571 10.6839C79.0279 10.9179 79.4927 11.1056 80.1513 11.2472L82.718 11.7642C84.0968 12.0473 85.1248 12.5028 85.8018 13.1307C86.4789 13.7585 86.8175 14.5833 86.8175 15.6051C86.8175 16.5346 86.5436 17.3501 85.9957 18.0518C85.4541 18.7536 84.7093 19.3014 83.7614 19.6953C82.8196 20.0831 81.7332 20.277 80.5021 20.277C78.6248 20.277 77.129 19.8861 76.0149 19.1044C74.907 18.3165 74.2576 17.2455 74.0668 15.8913L77.9354 15.6882C78.0523 16.2607 78.3355 16.6977 78.7848 16.9993C79.2341 17.2947 79.8097 17.4425 80.5114 17.4425C81.2008 17.4425 81.7547 17.3101 82.1733 17.0455C82.598 16.7746 82.8134 16.4268 82.8196 16.0021C82.8134 15.6451 82.6626 15.3527 82.3672 15.125C82.0717 14.8911 81.6162 14.7126 81.0007 14.5895L78.5447 14.1001C77.1598 13.8232 76.1288 13.343 75.4517 12.6598C74.7808 11.9766 74.4453 11.1056 74.4453 10.0469C74.4453 9.13589 74.6915 8.35109 75.1839 7.69247C75.6825 7.03385 76.3812 6.52604 77.2798 6.16903C78.1847 5.81203 79.2434 5.63352 80.456 5.63352C82.2472 5.63352 83.6567 6.01207 84.6847 6.76918C85.7188 7.52628 86.322 8.55729 86.4943 9.86222ZM95.3118 20V5.81818H99.245V20H95.3118ZM97.2876 3.99006C96.7029 3.99006 96.2012 3.79616 95.7827 3.40838C95.3703 3.01444 95.1641 2.54356 95.1641 1.99574C95.1641 1.45407 95.3703 0.989346 95.7827 0.601562C96.2012 0.207622 96.7029 0.0106524 97.2876 0.0106524C97.8724 0.0106524 98.371 0.207622 98.7834 0.601562C99.2019 0.989346 99.4112 1.45407 99.4112 1.99574C99.4112 2.54356 99.2019 3.01444 98.7834 3.40838C98.371 3.79616 97.8724 3.99006 97.2876 3.99006ZM106.329 11.8011V20H102.396V5.81818H106.144V8.32031H106.311C106.624 7.4955 107.151 6.84304 107.889 6.36293C108.628 5.87666 109.524 5.63352 110.576 5.63352C111.561 5.63352 112.42 5.84896 113.152 6.27983C113.885 6.7107 114.454 7.32623 114.86 8.12642C115.267 8.92045 115.47 9.86837 115.47 10.9702V20H111.536V11.6719C111.543 10.804 111.321 10.1269 110.872 9.64062C110.422 9.1482 109.804 8.90199 109.016 8.90199C108.486 8.90199 108.019 9.01586 107.612 9.24361C107.212 9.47135 106.898 9.80374 106.671 10.2408C106.449 10.6716 106.335 11.1918 106.329 11.8011ZM124.587 20V5.81818H128.336V8.32031H128.502C128.797 7.48935 129.29 6.83381 129.979 6.35369C130.669 5.87358 131.493 5.63352 132.454 5.63352C133.426 5.63352 134.254 5.87666 134.937 6.36293C135.621 6.84304 136.076 7.4955 136.304 8.32031H136.452C136.741 7.50781 137.264 6.85843 138.021 6.37216C138.784 5.87973 139.686 5.63352 140.726 5.63352C142.05 5.63352 143.124 6.05516 143.949 6.89844C144.78 7.73556 145.195 8.92353 145.195 10.4624V20H141.271V11.2379C141.271 10.45 141.062 9.85914 140.643 9.4652C140.225 9.07126 139.702 8.87429 139.074 8.87429C138.36 8.87429 137.803 9.10204 137.403 9.55753C137.002 10.0069 136.802 10.6009 136.802 11.3395V20H132.989V11.1548C132.989 10.4593 132.789 9.9053 132.389 9.4929C131.995 9.08049 131.475 8.87429 130.829 8.87429C130.392 8.87429 129.998 8.98509 129.647 9.20668C129.302 9.42211 129.028 9.7268 128.825 10.1207C128.622 10.5085 128.52 10.964 128.52 11.4872V20H124.587ZM150.222 25.3182C149.724 25.3182 149.256 25.2782 148.819 25.1982C148.388 25.1243 148.031 25.0289 147.748 24.9119L148.634 21.9759C149.096 22.1174 149.512 22.1944 149.881 22.2067C150.256 22.219 150.579 22.1328 150.85 21.9482C151.127 21.7635 151.352 21.4496 151.524 21.0064L151.755 20.4062L146.668 5.81818H150.804L153.74 16.233H153.888L156.852 5.81818H161.016L155.504 21.5327C155.239 22.2959 154.879 22.9607 154.423 23.527C153.974 24.0994 153.405 24.5395 152.715 24.8473C152.026 25.1612 151.195 25.3182 150.222 25.3182ZM169.12 20V1.09091H181.64V4.38707H173.118V8.89276H180.809V12.1889H173.118V20H169.12ZM184.027 20V5.81818H187.84V8.29261H187.988C188.246 7.4124 188.68 6.74763 189.289 6.2983C189.899 5.8428 190.6 5.61506 191.395 5.61506C191.592 5.61506 191.804 5.62737 192.032 5.65199C192.259 5.67661 192.459 5.71046 192.632 5.75355V9.24361C192.447 9.18821 192.192 9.13897 191.865 9.09588C191.539 9.05279 191.241 9.03125 190.97 9.03125C190.391 9.03125 189.874 9.15743 189.419 9.4098C188.969 9.65601 188.612 10.0007 188.348 10.4439C188.089 10.8871 187.96 11.398 187.96 11.9766V20H184.027ZM194.665 20V5.81818H198.599V20H194.665ZM196.641 3.99006C196.056 3.99006 195.555 3.79616 195.136 3.40838C194.724 3.01444 194.518 2.54356 194.518 1.99574C194.518 1.45407 194.724 0.989346 195.136 0.601562C195.555 0.207622 196.056 0.0106524 196.641 0.0106524C197.226 0.0106524 197.724 0.207622 198.137 0.601562C198.555 0.989346 198.765 1.45407 198.765 1.99574C198.765 2.54356 198.555 3.01444 198.137 3.40838C197.724 3.79616 197.226 3.99006 196.641 3.99006ZM206.975 20.2308C205.898 20.2308 204.922 19.9538 204.048 19.3999C203.18 18.8397 202.491 18.018 201.98 16.9347C201.475 15.8452 201.223 14.5095 201.223 12.9276C201.223 11.3026 201.485 9.95147 202.008 8.87429C202.531 7.79096 203.227 6.98153 204.094 6.44602C204.969 5.90436 205.926 5.63352 206.966 5.63352C207.76 5.63352 208.422 5.76894 208.951 6.03977C209.487 6.30445 209.917 6.63684 210.244 7.03693C210.576 7.43087 210.828 7.81865 211.001 8.20028H211.121V1.09091H215.045V20H211.167V17.7287H211.001C210.816 18.1226 210.554 18.5135 210.216 18.9013C209.884 19.2829 209.45 19.5999 208.914 19.8523C208.385 20.1046 207.738 20.2308 206.975 20.2308ZM208.222 17.1009C208.856 17.1009 209.391 16.9285 209.828 16.5838C210.271 16.233 210.61 15.7436 210.844 15.1158C211.084 14.4879 211.204 13.7524 211.204 12.9091C211.204 12.0658 211.087 11.3333 210.853 10.7116C210.619 10.09 210.281 9.60985 209.837 9.27131C209.394 8.93276 208.856 8.76349 208.222 8.76349C207.575 8.76349 207.031 8.93892 206.587 9.28977C206.144 9.64062 205.809 10.1269 205.581 10.7486C205.353 11.3703 205.239 12.0904 205.239 12.9091C205.239 13.7339 205.353 14.4633 205.581 15.0973C205.815 15.7251 206.15 16.2176 206.587 16.5746C207.031 16.9254 207.575 17.1009 208.222 17.1009ZM224.668 25.6136C223.394 25.6136 222.301 25.4382 221.39 25.0874C220.485 24.7427 219.765 24.2718 219.23 23.6747C218.694 23.0777 218.346 22.4067 218.186 21.6619L221.824 21.1726C221.935 21.4557 222.11 21.7204 222.35 21.9666C222.59 22.2128 222.907 22.4098 223.301 22.5575C223.701 22.7114 224.188 22.7884 224.76 22.7884C225.616 22.7884 226.32 22.5791 226.874 22.1605C227.435 21.7481 227.715 21.0556 227.715 20.0831V17.4886H227.548C227.376 17.8826 227.118 18.255 226.773 18.6058C226.428 18.9567 225.985 19.2429 225.443 19.4645C224.902 19.6861 224.255 19.7969 223.504 19.7969C222.44 19.7969 221.47 19.5507 220.596 19.0582C219.728 18.5597 219.036 17.7995 218.519 16.7777C218.008 15.7498 217.752 14.451 217.752 12.8814C217.752 11.2749 218.014 9.933 218.537 8.85582C219.06 7.77865 219.756 6.9723 220.624 6.43679C221.498 5.90128 222.455 5.63352 223.495 5.63352C224.289 5.63352 224.954 5.76894 225.49 6.03977C226.025 6.30445 226.456 6.63684 226.782 7.03693C227.115 7.43087 227.37 7.81865 227.548 8.20028H227.696V5.81818H231.602V20.1385C231.602 21.3449 231.306 22.3544 230.715 23.1669C230.124 23.9794 229.306 24.5888 228.259 24.995C227.219 25.4074 226.022 25.6136 224.668 25.6136ZM224.751 16.8423C225.385 16.8423 225.92 16.6854 226.357 16.3714C226.801 16.0514 227.139 15.5959 227.373 15.005C227.613 14.4079 227.733 13.6939 227.733 12.8629C227.733 12.032 227.616 11.3118 227.382 10.7024C227.148 10.0869 226.81 9.60985 226.367 9.27131C225.923 8.93276 225.385 8.76349 224.751 8.76349C224.105 8.76349 223.56 8.93892 223.117 9.28977C222.673 9.63447 222.338 10.1146 222.11 10.7301C221.883 11.3456 221.769 12.0566 221.769 12.8629C221.769 13.6816 221.883 14.3894 222.11 14.9865C222.344 15.5774 222.68 16.036 223.117 16.3622C223.56 16.6823 224.105 16.8423 224.751 16.8423ZM241.195 20.277C239.736 20.277 238.48 19.9815 237.428 19.3906C236.381 18.7936 235.575 17.9503 235.009 16.8608C234.442 15.7652 234.159 14.4695 234.159 12.9737C234.159 11.5149 234.442 10.2346 235.009 9.13281C235.575 8.03101 236.372 7.17235 237.4 6.55682C238.434 5.94129 239.647 5.63352 241.038 5.63352C241.973 5.63352 242.844 5.78433 243.651 6.08594C244.463 6.38139 245.171 6.82765 245.774 7.42472C246.384 8.02178 246.858 8.77273 247.196 9.67756C247.535 10.5762 247.704 11.6288 247.704 12.8352V13.9155H235.729V11.478H244.002C244.002 10.9117 243.878 10.41 243.632 9.97301C243.386 9.53598 243.044 9.19437 242.607 8.94815C242.177 8.69579 241.675 8.5696 241.102 8.5696C240.505 8.5696 239.976 8.7081 239.514 8.98508C239.059 9.25592 238.702 9.62216 238.443 10.0838C238.185 10.5393 238.052 11.0471 238.046 11.6072V13.9247C238.046 14.6264 238.176 15.2327 238.434 15.7436C238.699 16.2545 239.071 16.6484 239.551 16.9254C240.031 17.2024 240.601 17.3409 241.259 17.3409C241.696 17.3409 242.097 17.2794 242.46 17.1562C242.823 17.0331 243.134 16.8485 243.392 16.6023C243.651 16.3561 243.848 16.0545 243.983 15.6974L247.621 15.9375C247.436 16.8116 247.058 17.5748 246.485 18.2273C245.919 18.8736 245.186 19.3783 244.288 19.7415C243.395 20.0985 242.364 20.277 241.195 20.277Z" fill="white"/>
</svg>
